<svg version="1.1" xmlns="http://www.w3.org/2000/svg"><ellipse cx = "100" cy = "110" rx = "55" ry = "55" stroke = "#7b001c" fill = "transparent" stroke-width = "5" />
<ellipse cx = "250" cy = "260" rx = "55" ry = "55" stroke = "#7b001c" fill = "transparent" stroke-width = "5" />
<line x1 = "10" y1 = "20" x2 = "310" y2 = "20" stroke = "#123456" stroke-width = "5" />
<line x1 = "310" y1 = "20" x2 = "310" y2 = "420" stroke = "#123456" stroke-width = "5" />
<line x1 = "310" y1 = "420" x2 = "10" y2 = "420" stroke = "#123456" stroke-width = "5" />
<line x1 = "10" y1 = "420" x2 = "10" y2 = "20" stroke = "#123456" stroke-width = "5" />
<line x1 = "0" y1 = "400" x2 = "400" y2 = "400" stroke = "#000000" stroke-width = "5" />
<ellipse cx = "50" cy = "210" rx = "45" ry = "45" stroke = "#000000" fill = "transparent" stroke-width = "5" />
<ellipse cx = "350" cy = "360" rx = "55" ry = "55" stroke = "#7b001c" fill = "transparent" stroke-width = "5" />
<line x1 = "110" y1 = "120" x2 = "410" y2 = "120" stroke = "#7b001c" stroke-width = "5" />
<line x1 = "410" y1 = "120" x2 = "410" y2 = "520" stroke = "#7b001c" stroke-width = "5" />
<line x1 = "410" y1 = "520" x2 = "110" y2 = "520" stroke = "#7b001c" stroke-width = "5" />
<line x1 = "110" y1 = "520" x2 = "110" y2 = "120" stroke = "#7b001c" stroke-width = "5" />
<line x1 = "200" y1 = "250" x2 = "160" y2 = "160" stroke = "#00fefe" stroke-width = "5" />
<line x1 = "160" y1 = "160" x2 = "180" y2 = "310" stroke = "#00fefe" stroke-width = "5" />
<line x1 = "180" y1 = "310" x2 = "200" y2 = "250" stroke = "#00fefe" stroke-width = "5" />
<text x = "500" y = "400" font-size = "25" fill = "#00fefe" > Hello</text>
<text x = "400" y = "100" font-size = "30" fill = "#7b001c" > WORLD</text>
</svg>
