<svg version="1.1"  width = "1000" height = "1000" xmlns="http://www.w3.org/2000/svg">
<line x1="1" y1="1" x2="1001" y2="1" stroke="#00c8ffb3" stroke-width ="1" />
<line x1="1001" y1="1" x2="1001" y2="1001" stroke="#00c8ffb3" stroke-width ="1" />
<line x1="1001" y1="1001" x2="1" y2="1001" stroke="#00c8ffb3" stroke-width ="1" />
<line x1="1" y1="1001" x2="1" y2="1" stroke="#00c8ffb3" stroke-width ="1" />
<path d="M1 1 L 1001 1 L 1001 1001 L 1 1001 Z" fill="#00c8ffb3" />
<line x1="1" y1="800" x2="1001" y2="800" stroke="#00ff00ff" stroke-width ="5" />
<line x1="1001" y1="800" x2="1001" y2="1000" stroke="#00ff00ff" stroke-width ="5" />
<line x1="1001" y1="1000" x2="1" y2="1000" stroke="#00ff00ff" stroke-width ="5" />
<line x1="1" y1="1000" x2="1" y2="800" stroke="#00ff00ff" stroke-width ="5" />
<path d="M1 800 L 1001 800 L 1001 1000 L 1 1000 Z" fill="#00ff00bf" />
<line x1="170" y1="500" x2="570" y2="500" stroke="#6e5e43f5" stroke-width ="10" />
<line x1="570" y1="500" x2="570" y2="900" stroke="#6e5e43f5" stroke-width ="10" />
<line x1="570" y1="900" x2="170" y2="900" stroke="#6e5e43f5" stroke-width ="10" />
<line x1="170" y1="900" x2="170" y2="500" stroke="#6e5e43f5" stroke-width ="10" />
<path d="M170 500 L 570 500 L 570 900 L 170 900 Z" fill="#6e5e43fc" />
<line x1="170" y1="500" x2="370" y2="300" stroke="#ffff00ff" stroke-width ="15" />
<line x1="370" y1="300" x2="570" y2="500" stroke="#ffff00ff" stroke-width ="15" />
<line x1="570" y1="500" x2="170" y2="500" stroke="#ffff00ff" stroke-width ="15" />
<path d="M170 500 L 370 300 L 570 500 Z" fill="#ffff2bfa" />
<ellipse cx = "320" cy="650" rx ="50" ry ="50" stroke="#6e5e43f5" fill = "transparent" stroke-width ="15" />
<ellipse cx = "320" cy="650" rx ="50" ry ="50" fill = "#bbe7d2ff" />
<line x1="370" y1="766.667" x2="570" y2="766.667" stroke="#00fff0ff" stroke-width ="30" />
<line x1="570" y1="766.667" x2="570" y2="900" stroke="#00fff0ff" stroke-width ="30" />
<line x1="570" y1="900" x2="370" y2="900" stroke="#00fff0ff" stroke-width ="30" />
<line x1="370" y1="900" x2="370" y2="766.667" stroke="#00fff0ff" stroke-width ="30" />
<path d="M370 766.667 L 570 766.667 L 570 900 L 370 900 Z" fill="#ff0000ff" />
<line x1="370" y1="766.667" x2="470" y2="700" stroke="#00fff0ff" stroke-width ="30" />
<line x1="470" y1="700" x2="570" y2="766.667" stroke="#00fff0ff" stroke-width ="30" />
<line x1="570" y1="766.667" x2="370" y2="766.667" stroke="#00fff0ff" stroke-width ="30" />
<path d="M370 766.667 L 470 700 L 570 766.667 Z" fill="#ff0000ff" />
<ellipse cx = "445" cy="816.667" rx ="25" ry ="16.6667" stroke="#00fff0ff" fill = "transparent" stroke-width ="30" />
<ellipse cx = "445" cy="816.667" rx ="25" ry ="16.6667" fill = "#ff0000ff" />
</svg>
